<?xml version="1.0" encoding="UTF-8"?>
<svg width="1200pt" height="1200pt" version="1.1" viewBox="0 0 1200 1200" xmlns="http://www.w3.org/2000/svg">
 <g>
  <path d="m611.72 916.41c-2.0234 0-4.0469-0.52344-5.8594-1.5703l-173.62-100.25c-5.6055-3.2383-7.5273-10.402-4.2891-16.008 3.2383-5.6094 10.402-7.5273 16.008-4.2891l167.76 96.863 167.79-96.863c5.6055-3.2422 12.773-1.3164 16.008 4.2891 3.2383 5.6055 1.3164 12.77-4.2891 16.008l-173.64 100.25c-1.8125 1.0469-3.8359 1.5703-5.8594 1.5703z"/>
  <path d="m611.72 1116.9c-6.4727 0-11.719-5.2461-11.719-11.719v-200.5c0-6.4727 5.2461-11.719 11.719-11.719s11.719 5.2461 11.719 11.719v200.5c0 6.4727-5.2461 11.719-11.719 11.719z"/>
  <path d="m611.72 1116.9c-2.0234 0-4.0469-0.52344-5.8633-1.5703l-173.61-100.25c-3.625-2.0938-5.8594-5.9609-5.8594-10.148v-200.49c0-4.1875 2.2344-8.0547 5.8594-10.148l173.62-100.25c3.625-2.0938 8.0938-2.0938 11.719 0l173.64 100.25c3.625 2.0938 5.8594 5.9609 5.8594 10.148v200.49c0 4.1875-2.2344 8.0586-5.8594 10.148l-173.64 100.25c-1.8125 1.0469-3.8359 1.5703-5.8594 1.5703zm-161.9-118.73 161.9 93.484 161.93-93.484v-186.96l-161.93-93.484-161.9 93.484z"/>
  <path d="m869.53 294.04h-515.62c-6.4727 0-11.719-5.2461-11.719-11.719v-187.5c0-6.4727 5.2461-11.719 11.719-11.719h515.62c6.4727 0 11.719 5.2461 11.719 11.719v187.5c0 6.4688-5.2461 11.719-11.719 11.719zm-503.91-23.438h492.19v-164.06h-492.19z"/>
  <path d="m705.47 411.23h-187.5c-2.4414 0-4.8242-0.76562-6.8125-2.1836l-164.06-117.19c-4.1445-2.9609-5.9023-8.2617-4.3477-13.113 1.5547-4.8516 6.0664-8.1406 11.16-8.1406h515.62c5.0938 0 9.6055 3.2891 11.16 8.1406 1.5547 4.8516-0.20312 10.152-4.3477 13.113l-164.06 117.19c-1.9883 1.418-4.3711 2.1836-6.8125 2.1836zm-183.74-23.438h179.99l131.25-93.75h-442.49z"/>
  <path d="m611.72 551.85c-2.4766 0-4.9492-0.78125-7.0312-2.3438l-93.75-70.312c-2.9492-2.2109-4.6875-5.6875-4.6875-9.375v-70.312c0-6.4727 5.2461-11.719 11.719-11.719h187.5c6.4727 0 11.719 5.2461 11.719 11.719v70.312c0 3.6875-1.7383 7.1641-4.6875 9.375l-93.75 70.312c-2.082 1.5586-4.5547 2.3438-7.0312 2.3438zm-82.031-87.891 82.031 61.523 82.031-61.523v-52.734h-164.06z"/>
  <path d="m939.84 223.73h-70.312c-6.4727 0-11.719-5.2461-11.719-11.719v-117.19c0-6.4727 5.2461-11.719 11.719-11.719h70.312c38.77 0 70.312 31.543 70.312 70.312 0 38.77-31.543 70.312-70.312 70.312zm-58.594-23.438h58.594c25.848 0 46.875-21.027 46.875-46.875 0-25.848-21.027-46.875-46.875-46.875h-58.594z"/>
  <path d="m353.91 223.73h-70.312c-38.77 0-70.312-31.543-70.312-70.312 0-38.77 31.543-70.312 70.312-70.312h70.312c6.4727 0 11.719 5.2461 11.719 11.719v117.19c0 6.4688-5.2461 11.719-11.719 11.719zm-70.312-117.19c-25.848 0-46.875 21.027-46.875 46.875 0 25.848 21.027 46.875 46.875 46.875h58.594v-93.75z"/>
  <path d="m705.47 176.85h-257.81c-6.4727 0-11.719-5.2461-11.719-11.719 0-6.4727 5.2461-11.719 11.719-11.719h257.81c6.4727 0 11.719 5.2461 11.719 11.719 0 6.4688-5.2461 11.719-11.719 11.719z"/>
  <path d="m799.22 165.13c0 12.941-10.492 23.438-23.438 23.438s-23.438-10.496-23.438-23.438c0-12.945 10.492-23.438 23.438-23.438s23.438 10.492 23.438 23.438"/>
  <path d="m1080.5 329.2c0 12.941-10.492 23.438-23.438 23.438s-23.438-10.496-23.438-23.438c0-12.945 10.492-23.438 23.438-23.438s23.438 10.492 23.438 23.438"/>
  <path d="m822.66 587c0 12.945-10.492 23.438-23.438 23.438s-23.438-10.492-23.438-23.438c0-12.945 10.492-23.438 23.438-23.438s23.438 10.492 23.438 23.438"/>
  <path d="m1057 844.82c0 12.945-10.492 23.438-23.438 23.438s-23.438-10.492-23.438-23.438c0-12.945 10.492-23.438 23.438-23.438s23.438 10.492 23.438 23.438"/>
  <path d="m307.03 915.13c0 12.945-10.492 23.438-23.438 23.438s-23.438-10.492-23.438-23.438c0-12.945 10.492-23.438 23.438-23.438s23.438 10.492 23.438 23.438"/>
  <path d="m400.78 493.26c0 12.941-10.492 23.438-23.438 23.438s-23.438-10.496-23.438-23.438c0-12.945 10.492-23.438 23.438-23.438s23.438 10.492 23.438 23.438"/>
  <path d="m166.41 305.76c0 12.941-10.492 23.438-23.438 23.438s-23.438-10.496-23.438-23.438c0-12.945 10.492-23.438 23.438-23.438s23.438 10.492 23.438 23.438"/>
  <path d="m611.72 715.91c-6.4727 0-11.719-5.2461-11.719-11.719v-164.06c0-6.4727 5.2461-11.719 11.719-11.719s11.719 5.2461 11.719 11.719v164.06c0 6.4727-5.2461 11.719-11.719 11.719z"/>
  <path d="m236.72 715.91c-32.309 0-58.594-26.285-58.594-58.594s26.285-58.594 58.594-58.594 58.594 26.285 58.594 58.594-26.285 58.594-58.594 58.594zm0-93.75c-19.387 0-35.156 15.77-35.156 35.156 0 19.387 15.77 35.156 35.156 35.156s35.156-15.77 35.156-35.156c0-19.387-15.77-35.156-35.156-35.156z"/>
  <path d="m986.72 598.73c-45.23 0-82.031-36.801-82.031-82.031 0-45.23 36.801-82.031 82.031-82.031s82.031 36.801 82.031 82.031c0 45.23-36.801 82.031-82.031 82.031zm0-140.62c-32.309 0-58.594 26.285-58.594 58.594 0 32.309 26.285 58.594 58.594 58.594s58.594-26.285 58.594-58.594c0-32.309-26.285-58.594-58.594-58.594z"/>
 </g>
</svg>
