<?xml version="1.0" encoding="UTF-8"?>
<svg width="1200pt" height="1200pt" version="1.1" viewBox="0 0 1200 1200" xmlns="http://www.w3.org/2000/svg">
 <g>
  <path d="m938.32 701.83-254.64-6.6602c-9.8984-0.25391-17.664-8.4609-17.664-18.695v-23.242h-39.695v159.98h345.48v-96.781l-14.941-0.49219c-8.7109-0.30078-16.09-6.2305-18.539-14.113z"/>
  <path d="m962.54 590.73-0.035157 0.23828-0.058593-0.011718c-0.99609 2.8672-2.4609 5.3516-4.4297 7.3906-3.793 3.8633-8.6992 6-13.945 6.1328l-252.04 6.4102v58.98l252.01 6.5898c6.3125 0.16797 12.238 3.3242 15.84 8.4492l1.5586 2.6523c0.13281 0.20312 0.39453 0.75781 0.64844 1.4023l0.57422 1.6562 9.1211 0.30078v-100.87l-9.0859 0.28906c-0.03125 0.14062-0.11328 0.25-0.16406 0.39062z"/>
  <path d="m626.32 627.72h39.707v-23.449c0-10.234 7.7773-18.445 17.699-18.695l254.93-7.332 0.67188-1.6328c0.16797-0.37109 0.34766-0.74219 0.52734-1.0938 1.0781-1.8945 2.1367-3.2891 3.3828-4.5469l2.832-2.3633c1.2852-0.98438 3.3008-2.0156 5.4492-2.6875l1.4883-0.40625c0.53906-0.13281 1.3086-0.27734 2.0508-0.35938l1.6914-0.14453 15.047-0.49219v-96.781h-345.48z"/>
  <path d="m485.61 566.43v-40.418h-123.3v-58.738h-133.66v346.44h133.66v-58.738h123.3v-40.418h77.699l50.758-74.062-50.758-74.062z"/>
 </g>
</svg>
